<svg width="582" height="488" viewBox="0 0 582 488" fill="none" xmlns="http://www.w3.org/2000/svg">
<path fill-rule="evenodd" clip-rule="evenodd" d="M536.885 381C550.479 348.114 558 311.934 558 273.949C558 122.651 438.684 0 291.5 0C144.316 0 25 122.651 25 273.949C25 311.934 32.5208 348.114 46.1151 381H536.885Z" fill="#00B050"/>
<path d="M182.873 247.4C182.911 256.872 181.383 265.423 178.288 273.053C175.194 280.683 170.728 287.195 164.89 292.589C159.149 297.983 152.037 302.162 143.553 305.126C135.166 308.089 125.114 309.594 113.395 309.641L91.8619 309.727L92.135 377.988C92.1381 378.77 91.8967 379.454 91.4108 380.042C91.0225 380.63 90.3409 381.121 89.3659 381.515C88.4881 381.812 87.2196 382.061 85.5602 382.263C83.9989 382.562 81.9976 382.716 79.5562 382.726C77.1148 382.736 75.0634 382.598 73.4021 382.311C71.8389 382.122 70.5684 381.883 69.5906 381.594C68.6125 381.207 67.927 380.722 67.534 380.138C67.141 379.553 66.943 378.87 66.9399 378.089L66.2403 203.188C66.2246 199.282 67.2389 196.495 69.283 194.826C71.3271 193.158 73.6187 192.319 76.1578 192.309L116.734 192.146C120.835 192.13 124.742 192.31 128.455 192.685C132.264 192.963 136.711 193.678 141.793 194.829C146.973 195.883 152.206 197.961 157.492 201.065C162.875 204.071 167.431 207.813 171.16 212.29C174.889 216.767 177.742 221.981 179.719 227.93C181.793 233.781 182.845 240.271 182.873 247.4ZM156.368 249.557C156.337 241.842 154.846 235.402 151.896 230.238C149.043 225.074 145.463 221.231 141.156 218.709C136.947 216.187 132.546 214.593 127.954 213.928C123.459 213.262 119.063 212.938 114.766 212.955L91.4752 213.048L91.7793 289.073L114.484 288.982C122.101 288.952 128.396 287.95 133.369 285.977C138.439 284.004 142.676 281.301 146.081 277.869C149.485 274.34 152.056 270.179 153.794 265.387C155.533 260.497 156.391 255.221 156.368 249.557ZM332.661 377.173C332.664 377.954 332.472 378.638 332.083 379.226C331.695 379.716 331.062 380.158 330.184 380.552C329.307 380.946 328.087 381.244 326.526 381.445C324.964 381.647 323.011 381.752 320.668 381.762C318.226 381.772 316.224 381.682 314.661 381.493C313.097 381.304 311.875 381.016 310.995 380.629C310.114 380.241 309.478 379.805 309.085 379.318C308.692 378.733 308.494 378.051 308.491 377.269L308.182 300.073C308.152 292.553 307.542 286.501 306.352 281.916C305.162 277.331 303.437 273.383 301.178 270.071C298.918 266.76 295.978 264.233 292.358 262.489C288.836 260.746 284.731 259.883 280.043 259.902C273.988 259.926 267.942 262.099 261.905 266.42C255.867 270.741 249.545 277.065 242.938 285.392L243.306 377.53C243.309 378.311 243.117 378.996 242.729 379.583C242.34 380.073 241.707 380.515 240.829 380.909C239.952 381.303 238.733 381.601 237.171 381.803C235.609 382.004 233.608 382.11 231.166 382.12C228.823 382.129 226.869 382.039 225.306 381.85C223.743 381.661 222.472 381.373 221.494 380.987C220.613 380.599 219.977 380.163 219.584 379.676C219.289 379.091 219.14 378.408 219.137 377.627L218.354 181.925C218.351 181.144 218.494 180.46 218.785 179.873C219.173 179.285 219.806 178.794 220.683 178.4C221.658 178.006 222.927 177.708 224.488 177.506C226.05 177.305 228.003 177.199 230.347 177.19C232.788 177.18 234.79 177.27 236.354 177.459C237.917 177.648 239.139 177.936 240.019 178.323C240.9 178.71 241.536 179.196 241.929 179.78C242.322 180.365 242.52 181.047 242.523 181.829L242.839 260.783C249.743 253.431 256.704 247.983 263.721 244.44C270.738 240.798 277.811 238.963 284.94 238.935C293.729 238.9 301.108 240.384 307.077 243.387C313.143 246.293 318.042 250.228 321.773 255.194C325.503 260.159 328.164 266.008 329.753 272.74C331.44 279.374 332.302 287.427 332.34 296.9L332.661 377.173ZM400.922 376.9C400.925 377.681 400.733 378.365 400.344 378.953C399.956 379.443 399.323 379.885 398.445 380.279C397.568 380.673 396.349 380.971 394.787 381.172C393.225 381.374 391.224 381.48 388.782 381.489C386.438 381.499 384.485 381.409 382.922 381.22C381.358 381.031 380.088 380.743 379.11 380.356C378.229 379.969 377.593 379.532 377.2 379.045C376.905 378.461 376.756 377.778 376.752 376.996L376.225 245.161C376.222 244.478 376.366 243.843 376.657 243.255C377.045 242.668 377.678 242.177 378.555 241.783C379.53 241.388 380.799 241.09 382.36 240.889C383.922 240.687 385.875 240.582 388.219 240.572C390.66 240.563 392.662 240.652 394.226 240.841C395.789 241.03 397.011 241.319 397.891 241.706C398.772 242.093 399.408 242.579 399.801 243.163C400.194 243.747 400.392 244.381 400.395 245.065L400.922 376.9ZM403 200.523C403.023 206.187 401.964 210.048 399.824 212.108C397.683 214.167 393.732 215.208 387.971 215.231C382.307 215.254 378.397 214.293 376.24 212.349C374.181 210.306 373.141 206.502 373.118 200.935C373.096 195.271 374.155 191.41 376.295 189.35C378.435 187.291 382.386 186.25 388.148 186.227C393.812 186.204 397.673 187.214 399.732 189.256C401.888 191.201 402.978 194.956 403 200.523ZM514.115 366.779C514.126 369.611 513.94 371.858 513.556 373.519C513.172 375.181 512.591 376.404 511.813 377.189C511.035 377.973 509.866 378.71 508.306 379.4C506.746 380.09 504.942 380.634 502.893 381.033C500.941 381.529 498.843 381.928 496.599 382.23C494.354 382.532 492.108 382.687 489.862 382.696C483.026 382.724 477.163 381.868 472.274 380.13C467.383 378.294 463.369 375.576 460.229 371.975C457.089 368.277 454.776 363.647 453.289 358.087C451.899 352.428 451.189 345.79 451.158 338.173L450.85 261.123L432.393 261.197C430.928 261.203 429.753 260.426 428.868 258.867C427.983 257.308 427.533 254.771 427.519 251.255C427.512 249.4 427.603 247.837 427.794 246.567C428.082 245.296 428.419 244.269 428.807 243.486C429.194 242.606 429.68 242.018 430.265 241.723C430.947 241.329 431.678 241.131 432.459 241.128L450.77 241.055L450.644 209.707C450.642 209.024 450.786 208.388 451.076 207.801C451.465 207.214 452.097 206.723 452.975 206.329C453.949 205.837 455.217 205.49 456.779 205.288C458.341 205.087 460.294 204.981 462.637 204.972C465.079 204.962 467.081 205.052 468.644 205.241C470.208 205.43 471.43 205.767 472.31 206.251C473.191 206.639 473.828 207.124 474.221 207.709C474.614 208.293 474.811 208.927 474.814 209.611L474.94 240.958L508.777 240.823C509.558 240.82 510.243 241.012 510.83 241.4C511.417 241.691 511.908 242.275 512.302 243.152C512.794 243.932 513.139 244.956 513.34 246.224C513.54 247.493 513.644 249.055 513.652 250.911C513.666 254.426 513.236 256.967 512.364 258.533C511.491 260.099 510.322 260.885 508.857 260.891L475.02 261.026L475.314 334.561C475.35 343.643 476.696 350.522 479.352 355.199C482.104 359.778 486.947 362.054 493.881 362.026C496.127 362.017 498.128 361.813 499.884 361.416C501.64 360.921 503.201 360.426 504.566 359.932C505.931 359.439 507.101 358.994 508.076 358.6C509.051 358.108 509.929 357.86 510.71 357.857C511.198 357.855 511.638 358 512.03 358.291C512.519 358.484 512.863 358.922 513.061 359.605C513.357 360.288 513.604 361.214 513.804 362.386C514.004 363.557 514.108 365.021 514.115 366.779Z" fill="#FFF5F5"/>
<path fill-rule="evenodd" clip-rule="evenodd" d="M219.333 32.4135C227.232 22.9484 237.944 17.6312 249.114 17.6312C260.283 17.6312 270.996 22.9484 278.895 32.4135L291.237 47.1939L303.579 32.4135C307.464 27.5913 312.112 23.745 317.252 21.099C322.391 18.4529 327.918 17.0602 333.511 17.0019C339.104 16.9437 344.651 18.2211 349.828 20.7597C355.004 23.2983 359.707 27.0472 363.663 31.7877C367.618 36.5282 370.745 42.1653 372.863 48.3701C374.981 54.5749 376.047 61.2232 375.998 67.927C375.95 74.6308 374.788 81.2559 372.58 87.4156C370.373 93.5754 367.164 99.1465 363.14 103.804L291.237 190L219.333 103.804C211.436 94.336 207 81.4964 207 68.1087C207 54.721 211.436 41.8814 219.333 32.4135Z" fill="#FFF5F5"/>
<path d="M260.752 283.244C260.942 282.596 261.338 282.027 261.878 281.622C262.419 281.218 263.076 281 263.752 281H288.752C289.247 281 289.734 281.118 290.175 281.344C290.615 281.57 290.996 281.897 291.285 282.298C291.574 282.7 291.764 283.165 291.839 283.654C291.913 284.143 291.871 284.643 291.714 285.113L280.589 318.5H304.377C304.962 318.5 305.536 318.664 306.032 318.973C306.529 319.283 306.929 319.726 307.186 320.251C307.443 320.777 307.548 321.364 307.487 321.946C307.427 322.528 307.205 323.082 306.846 323.544L263.096 379.794C262.647 380.373 262.01 380.776 261.295 380.933C260.58 381.09 259.832 380.991 259.183 380.653C258.533 380.316 258.023 379.76 257.741 379.085C257.458 378.409 257.423 377.656 257.639 376.956L268.896 340.375H248.127C247.641 340.375 247.162 340.262 246.727 340.045C246.293 339.828 245.915 339.512 245.624 339.123C245.332 338.734 245.136 338.283 245.05 337.805C244.963 337.327 244.99 336.835 245.127 336.369L260.752 283.244Z" fill="#FFF5F5"/>
<path d="M109.75 222H132.25V281H109.75V222Z" fill="#FFF5F5"/>
<path d="M96 264.775V238.225H146V264.775H96Z" fill="#FFF5F5"/>
<path d="M70.8252 419.983C70.8252 424.72 70.0439 428.992 68.4814 432.801C66.9189 436.609 64.6729 439.856 61.7432 442.542C58.8623 445.228 55.2979 447.303 51.0498 448.768C46.8506 450.232 41.8213 450.965 35.9619 450.965H25.1953V485.096C25.1953 485.486 25.0732 485.828 24.8291 486.121C24.6338 486.414 24.292 486.658 23.8037 486.854C23.3643 487 22.7295 487.122 21.8994 487.22C21.1182 487.366 20.1172 487.439 18.8965 487.439C17.6758 487.439 16.6504 487.366 15.8203 487.22C15.0391 487.122 14.4043 487 13.916 486.854C13.4277 486.658 13.0859 486.414 12.8906 486.121C12.6953 485.828 12.5977 485.486 12.5977 485.096V397.645C12.5977 395.691 13.1104 394.3 14.1357 393.47C15.1611 392.64 16.3086 392.225 17.5781 392.225H37.8662C39.917 392.225 41.8701 392.322 43.7256 392.518C45.6299 392.664 47.8516 393.03 50.3906 393.616C52.9785 394.153 55.5908 395.203 58.2275 396.766C60.9131 398.279 63.1836 400.159 65.0391 402.405C66.8945 404.651 68.3105 407.264 69.2871 410.242C70.3125 413.172 70.8252 416.419 70.8252 419.983ZM57.5684 421.009C57.5684 417.151 56.8359 413.929 55.3711 411.341C53.9551 408.753 52.1729 406.824 50.0244 405.555C47.9248 404.285 45.7275 403.479 43.4326 403.138C41.1865 402.796 38.9893 402.625 36.8408 402.625H25.1953V440.638H36.5479C40.3564 440.638 43.5059 440.149 45.9961 439.173C48.5352 438.196 50.6592 436.854 52.3682 435.145C54.0771 433.387 55.3711 431.312 56.25 428.919C57.1289 426.478 57.5684 423.841 57.5684 421.009ZM158.35 485.096C158.35 485.486 158.252 485.828 158.057 486.121C157.861 486.414 157.52 486.658 157.031 486.854C156.543 487 155.884 487.122 155.054 487.22C154.272 487.366 153.296 487.439 152.124 487.439C150.854 487.439 149.829 487.366 149.048 487.22C148.267 487.122 147.632 487 147.144 486.854C146.655 486.658 146.313 486.414 146.118 486.121C145.923 485.828 145.825 485.486 145.825 485.096V443.055H102.686V485.096C102.686 485.486 102.588 485.828 102.393 486.121C102.197 486.414 101.855 486.658 101.367 486.854C100.879 487 100.22 487.122 99.3896 487.22C98.6084 487.366 97.6074 487.439 96.3867 487.439C95.2148 487.439 94.2139 487.366 93.3838 487.22C92.5537 487.122 91.8945 487 91.4062 486.854C90.918 486.658 90.5762 486.414 90.3809 486.121C90.1855 485.828 90.0879 485.486 90.0879 485.096V394.129C90.0879 393.738 90.1855 393.396 90.3809 393.104C90.5762 392.811 90.918 392.591 91.4062 392.444C91.8945 392.249 92.5537 392.103 93.3838 392.005C94.2139 391.858 95.2148 391.785 96.3867 391.785C97.6074 391.785 98.6084 391.858 99.3896 392.005C100.22 392.103 100.879 392.249 101.367 392.444C101.855 392.591 102.197 392.811 102.393 393.104C102.588 393.396 102.686 393.738 102.686 394.129V432.068H145.825V394.129C145.825 393.738 145.923 393.396 146.118 393.104C146.313 392.811 146.655 392.591 147.144 392.444C147.632 392.249 148.267 392.103 149.048 392.005C149.829 391.858 150.854 391.785 152.124 391.785C153.296 391.785 154.272 391.858 155.054 392.005C155.884 392.103 156.543 392.249 157.031 392.444C157.52 392.591 157.861 392.811 158.057 393.104C158.252 393.396 158.35 393.738 158.35 394.129V485.096ZM196.143 485.096C196.143 485.486 196.045 485.828 195.85 486.121C195.654 486.414 195.312 486.658 194.824 486.854C194.336 487 193.677 487.122 192.847 487.22C192.065 487.366 191.064 487.439 189.844 487.439C188.672 487.439 187.671 487.366 186.841 487.22C186.011 487.122 185.352 487 184.863 486.854C184.375 486.658 184.033 486.414 183.838 486.121C183.643 485.828 183.545 485.486 183.545 485.096V394.129C183.545 393.738 183.643 393.396 183.838 393.104C184.082 392.811 184.448 392.591 184.937 392.444C185.474 392.249 186.133 392.103 186.914 392.005C187.744 391.858 188.721 391.785 189.844 391.785C191.064 391.785 192.065 391.858 192.847 392.005C193.677 392.103 194.336 392.249 194.824 392.444C195.312 392.591 195.654 392.811 195.85 393.104C196.045 393.396 196.143 393.738 196.143 394.129V485.096ZM280.737 397.645C280.737 398.572 280.688 399.378 280.591 400.062C280.493 400.745 280.322 401.307 280.078 401.746C279.883 402.137 279.614 402.43 279.272 402.625C278.979 402.82 278.638 402.918 278.247 402.918H251.587V485.096C251.587 485.486 251.489 485.828 251.294 486.121C251.099 486.414 250.757 486.658 250.269 486.854C249.78 487 249.121 487.122 248.291 487.22C247.51 487.366 246.509 487.439 245.288 487.439C244.116 487.439 243.115 487.366 242.285 487.22C241.455 487.122 240.796 487 240.308 486.854C239.819 486.658 239.478 486.414 239.282 486.121C239.087 485.828 238.989 485.486 238.989 485.096V402.918H212.329C211.938 402.918 211.572 402.82 211.23 402.625C210.938 402.43 210.693 402.137 210.498 401.746C210.303 401.307 210.132 400.745 209.985 400.062C209.888 399.378 209.839 398.572 209.839 397.645C209.839 396.717 209.888 395.911 209.985 395.228C210.132 394.495 210.303 393.909 210.498 393.47C210.693 393.03 210.938 392.713 211.23 392.518C211.572 392.322 211.938 392.225 212.329 392.225H278.247C278.638 392.225 278.979 392.322 279.272 392.518C279.614 392.713 279.883 393.03 280.078 393.47C280.322 393.909 280.493 394.495 280.591 395.228C280.688 395.911 280.737 396.717 280.737 397.645ZM377.563 481.507C377.563 482.483 377.515 483.313 377.417 483.997C377.319 484.632 377.148 485.193 376.904 485.682C376.709 486.121 376.44 486.463 376.099 486.707C375.806 486.902 375.439 487 375 487H333.105C331.982 487 330.908 486.634 329.883 485.901C328.906 485.12 328.418 483.777 328.418 481.873V394.129C328.418 393.738 328.516 393.396 328.711 393.104C328.906 392.811 329.248 392.591 329.736 392.444C330.225 392.249 330.884 392.103 331.714 392.005C332.544 391.858 333.545 391.785 334.717 391.785C335.938 391.785 336.938 391.858 337.72 392.005C338.55 392.103 339.209 392.249 339.697 392.444C340.186 392.591 340.527 392.811 340.723 393.104C340.918 393.396 341.016 393.738 341.016 394.129V476.087H375C375.439 476.087 375.806 476.209 376.099 476.453C376.44 476.648 376.709 476.966 376.904 477.405C377.148 477.796 377.319 478.333 377.417 479.017C377.515 479.7 377.563 480.53 377.563 481.507ZM409.497 450.159V485.096C409.497 485.486 409.399 485.828 409.204 486.121C409.009 486.414 408.667 486.658 408.179 486.854C407.69 487 407.031 487.122 406.201 487.22C405.371 487.366 404.37 487.439 403.198 487.439C401.978 487.439 400.952 487.366 400.122 487.22C399.341 487.122 398.682 487 398.145 486.854C397.656 486.658 397.314 486.414 397.119 486.121C396.924 485.828 396.826 485.486 396.826 485.096V450.159L370.02 396.692C369.482 395.569 369.141 394.69 368.994 394.056C368.896 393.421 369.019 392.933 369.36 392.591C369.751 392.249 370.41 392.029 371.338 391.932C372.314 391.834 373.608 391.785 375.22 391.785C376.685 391.785 377.856 391.834 378.735 391.932C379.663 392.029 380.396 392.176 380.933 392.371C381.47 392.518 381.86 392.762 382.104 393.104C382.397 393.396 382.666 393.787 382.91 394.275L396.021 421.521C397.241 424.109 398.462 426.819 399.683 429.651C400.903 432.483 402.148 435.34 403.418 438.221H403.564C404.688 435.438 405.835 432.679 407.007 429.944C408.228 427.161 409.448 424.427 410.669 421.741L423.853 394.349C423.999 393.86 424.194 393.445 424.438 393.104C424.731 392.762 425.098 392.518 425.537 392.371C426.025 392.176 426.685 392.029 427.515 391.932C428.345 391.834 429.395 391.785 430.664 391.785C432.422 391.785 433.789 391.858 434.766 392.005C435.791 392.103 436.499 392.322 436.89 392.664C437.28 393.006 437.402 393.494 437.256 394.129C437.158 394.764 436.841 395.618 436.304 396.692L409.497 450.159ZM502.148 397.645C502.148 398.572 502.1 399.378 502.002 400.062C501.904 400.745 501.733 401.307 501.489 401.746C501.245 402.137 500.952 402.43 500.61 402.625C500.317 402.82 500 402.918 499.658 402.918H464.941V435.145H497.754C498.096 435.145 498.413 435.242 498.706 435.438C499.048 435.584 499.341 435.853 499.585 436.243C499.829 436.634 500 437.171 500.098 437.854C500.195 438.489 500.244 439.319 500.244 440.345C500.244 441.272 500.195 442.078 500.098 442.762C500 443.396 499.829 443.934 499.585 444.373C499.341 444.764 499.048 445.081 498.706 445.325C498.413 445.521 498.096 445.618 497.754 445.618H464.941V485.096C464.941 485.438 464.844 485.779 464.648 486.121C464.453 486.414 464.111 486.658 463.623 486.854C463.135 487 462.5 487.122 461.719 487.22C460.938 487.366 459.912 487.439 458.643 487.439C457.471 487.439 456.47 487.366 455.64 487.22C454.81 487.122 454.15 487 453.662 486.854C453.174 486.658 452.832 486.414 452.637 486.121C452.441 485.779 452.344 485.438 452.344 485.096V397.352C452.344 395.447 452.832 394.129 453.809 393.396C454.834 392.615 455.908 392.225 457.031 392.225H499.658C500 392.225 500.317 392.322 500.61 392.518C500.952 392.713 501.245 393.03 501.489 393.47C501.733 393.909 501.904 394.495 502.002 395.228C502.1 395.911 502.148 396.717 502.148 397.645ZM574.072 481.8C574.072 482.679 574.023 483.46 573.926 484.144C573.828 484.778 573.657 485.315 573.413 485.755C573.169 486.194 572.876 486.512 572.534 486.707C572.241 486.902 571.899 487 571.509 487H526.025C524.902 487 523.828 486.634 522.803 485.901C521.826 485.12 521.338 483.777 521.338 481.873V397.352C521.338 395.447 521.826 394.129 522.803 393.396C523.828 392.615 524.902 392.225 526.025 392.225H570.996C571.387 392.225 571.729 392.322 572.021 392.518C572.363 392.713 572.632 393.03 572.827 393.47C573.022 393.909 573.169 394.471 573.267 395.154C573.413 395.789 573.486 396.595 573.486 397.571C573.486 398.45 573.413 399.231 573.267 399.915C573.169 400.55 573.022 401.087 572.827 401.526C572.632 401.917 572.363 402.21 572.021 402.405C571.729 402.601 571.387 402.698 570.996 402.698H533.936V432.435H565.723C566.113 432.435 566.455 432.557 566.748 432.801C567.09 432.996 567.358 433.289 567.554 433.68C567.798 434.07 567.969 434.607 568.066 435.291C568.164 435.975 568.213 436.78 568.213 437.708C568.213 438.587 568.164 439.344 568.066 439.979C567.969 440.613 567.798 441.126 567.554 441.517C567.358 441.907 567.09 442.2 566.748 442.396C566.455 442.542 566.113 442.615 565.723 442.615H533.936V476.526H571.509C571.899 476.526 572.241 476.624 572.534 476.819C572.876 477.015 573.169 477.332 573.413 477.771C573.657 478.162 573.828 478.699 573.926 479.383C574.023 480.018 574.072 480.823 574.072 481.8Z" fill="#00B050"/>
</svg>
