<svg width="562" height="488" viewBox="0 0 562 488" fill="none" xmlns="http://www.w3.org/2000/svg">
<path d="M524.287 381C537.882 348.114 545.402 311.934 545.402 273.949C545.402 122.651 426.086 0 278.902 0C131.718 0 12.4023 122.651 12.4023 273.949C12.4023 311.934 19.9231 348.114 33.5174 381H524.287Z" fill="#00B050"/>
<path d="M170.275 247.4C170.313 256.872 168.785 265.423 165.691 273.053C162.596 280.683 158.13 287.195 152.292 292.589C146.552 297.983 139.44 302.162 130.955 305.126C122.569 308.089 112.516 309.594 100.797 309.641L79.2643 309.727L79.5373 377.988C79.5405 378.77 79.299 379.454 78.8131 380.042C78.4248 380.63 77.7432 381.121 76.7682 381.515C75.8905 381.812 74.6219 382.061 72.9626 382.263C71.4013 382.562 69.3999 382.716 66.9585 382.726C64.5171 382.736 62.4658 382.598 60.8045 382.311C59.2412 382.122 57.9707 381.883 56.993 381.594C56.0149 381.207 55.3293 380.722 54.9364 380.138C54.5434 379.553 54.3453 378.87 54.3422 378.089L53.6426 203.188C53.627 199.282 54.6412 196.495 56.6854 194.826C58.7295 193.158 61.0211 192.319 63.5601 192.309L104.136 192.146C108.237 192.13 112.144 192.31 115.857 192.685C119.667 192.963 124.113 193.678 129.196 194.829C134.376 195.883 139.609 197.961 144.895 201.065C150.278 204.071 154.834 207.813 158.563 212.29C162.292 216.767 165.144 221.981 167.121 227.93C169.196 233.781 170.247 240.271 170.275 247.4ZM143.77 249.557C143.739 241.842 142.249 235.402 139.298 230.238C136.446 225.074 132.866 221.231 128.559 218.709C124.349 216.187 119.949 214.593 115.356 213.928C110.861 213.262 106.465 212.938 102.168 212.955L78.8776 213.048L79.1817 289.073L101.887 288.982C109.504 288.952 115.799 287.95 120.771 285.977C125.841 284.004 130.079 281.301 133.483 277.869C136.887 274.34 139.458 270.179 141.197 265.387C142.935 260.497 143.793 255.221 143.77 249.557Z" fill="#FFF5F5"/>
<path d="M320.063 377.173C320.066 377.954 319.874 378.638 319.486 379.226C319.097 379.716 318.464 380.158 317.587 380.552C316.709 380.946 315.49 381.244 313.928 381.445C312.366 381.647 310.414 381.752 308.07 381.762C305.629 381.772 303.626 381.682 302.063 381.493C300.5 381.304 299.278 381.016 298.397 380.629C297.517 380.241 296.88 379.805 296.488 379.318C296.095 378.733 295.897 378.051 295.894 377.269L295.585 300.073C295.555 292.553 294.945 286.501 293.754 281.916C292.564 277.331 290.839 273.383 288.58 270.071C286.321 266.76 283.381 264.233 279.761 262.489C276.238 260.746 272.133 259.883 267.445 259.902C261.391 259.926 255.345 262.099 249.307 266.42C243.27 270.741 236.947 277.065 230.34 285.392L230.709 377.53C230.712 378.311 230.519 378.996 230.131 379.583C229.742 380.073 229.109 380.515 228.232 380.909C227.355 381.303 226.135 381.601 224.573 381.803C223.012 382.004 221.01 382.11 218.569 382.12C216.225 382.129 214.271 382.039 212.708 381.85C211.145 381.661 209.874 381.373 208.896 380.987C208.016 380.599 207.379 380.163 206.987 379.676C206.691 379.091 206.542 378.408 206.539 377.627L205.756 181.925C205.753 181.144 205.897 180.46 206.187 179.873C206.576 179.285 207.208 178.794 208.086 178.4C209.061 178.006 210.329 177.708 211.891 177.506C213.452 177.305 215.405 177.199 217.749 177.19C220.19 177.18 222.193 177.27 223.756 177.459C225.319 177.648 226.541 177.936 227.422 178.323C228.302 178.71 228.939 179.196 229.332 179.78C229.725 180.365 229.923 181.047 229.926 181.829L230.242 260.783C237.146 253.431 244.107 247.983 251.124 244.44C258.14 240.798 265.213 238.963 272.342 238.935C281.131 238.9 288.51 240.384 294.479 243.387C300.546 246.293 305.444 250.228 309.175 255.194C312.906 260.159 315.566 266.008 317.155 272.74C318.842 279.374 319.704 287.427 319.742 296.9L320.063 377.173Z" fill="#FFF5F5"/>
<path d="M388.324 376.9C388.328 377.681 388.135 378.365 387.747 378.953C387.358 379.443 386.725 379.885 385.848 380.279C384.97 380.673 383.751 380.971 382.189 381.172C380.628 381.374 378.626 381.48 376.185 381.489C373.841 381.499 371.887 381.409 370.324 381.22C368.761 381.031 367.49 380.743 366.512 380.356C365.632 379.969 364.995 379.532 364.602 379.045C364.307 378.461 364.158 377.778 364.155 376.996L363.627 245.161C363.625 244.478 363.769 243.843 364.059 243.255C364.448 242.668 365.08 242.177 365.958 241.783C366.933 241.388 368.201 241.09 369.763 240.889C371.324 240.687 373.277 240.582 375.621 240.572C378.062 240.563 380.065 240.652 381.628 240.841C383.191 241.03 384.413 241.319 385.293 241.706C386.174 242.093 386.811 242.579 387.204 243.163C387.597 243.747 387.794 244.381 387.797 245.065L388.324 376.9ZM390.402 200.523C390.425 206.187 389.366 210.048 387.226 212.108C385.086 214.167 381.135 215.208 375.373 215.231C369.709 215.254 365.799 214.293 363.643 212.349C361.584 210.306 360.543 206.502 360.521 200.935C360.498 195.271 361.557 191.41 363.697 189.35C365.837 187.291 369.788 186.25 375.55 186.227C381.214 186.204 385.076 187.214 387.134 189.256C389.291 191.201 390.38 194.956 390.402 200.523Z" fill="#FFF5F5"/>
<path d="M501.517 366.779C501.529 369.611 501.342 371.858 500.958 373.519C500.574 375.181 499.993 376.404 499.215 377.189C498.437 377.973 497.268 378.71 495.708 379.4C494.149 380.09 492.344 380.634 490.295 381.033C488.344 381.529 486.246 381.928 484.001 382.23C481.756 382.532 479.51 382.687 477.264 382.696C470.429 382.724 464.566 381.868 459.676 380.13C454.786 378.294 450.771 375.576 447.631 371.975C444.492 368.277 442.178 363.647 440.691 358.087C439.301 352.428 438.591 345.79 438.561 338.173L438.252 261.123L419.796 261.197C418.331 261.203 417.156 260.426 416.271 258.867C415.385 257.308 414.936 254.771 414.922 251.255C414.914 249.4 415.006 247.837 415.196 246.567C415.484 245.296 415.822 244.269 416.209 243.486C416.596 242.606 417.082 242.018 417.667 241.723C418.349 241.329 419.081 241.131 419.862 241.128L438.172 241.055L438.047 209.707C438.044 209.024 438.188 208.388 438.479 207.801C438.867 207.214 439.5 206.723 440.377 206.329C441.352 205.837 442.62 205.49 444.181 205.288C445.743 205.087 447.696 204.981 450.04 204.972C452.481 204.962 454.483 205.052 456.047 205.241C457.61 205.43 458.832 205.767 459.713 206.251C460.593 206.639 461.23 207.124 461.623 207.709C462.016 208.293 462.214 208.927 462.216 209.611L462.342 240.958L496.18 240.823C496.961 240.82 497.645 241.012 498.233 241.4C498.82 241.691 499.31 242.275 499.704 243.152C500.196 243.932 500.542 244.956 500.742 246.224C500.943 247.493 501.046 249.055 501.054 250.911C501.068 254.426 500.639 256.967 499.766 258.533C498.893 260.099 497.725 260.885 496.26 260.891L462.422 261.026L462.716 334.561C462.753 343.643 464.099 350.522 466.754 355.199C469.507 359.778 474.35 362.054 481.283 362.026C483.529 362.017 485.531 361.813 487.287 361.416C489.043 360.921 490.603 360.426 491.968 359.932C493.334 359.439 494.504 358.994 495.479 358.6C496.453 358.108 497.331 357.86 498.112 357.857C498.601 357.855 499.041 358 499.433 358.291C499.922 358.484 500.265 358.922 500.463 359.605C500.759 360.288 501.007 361.214 501.207 362.386C501.407 363.557 501.51 365.021 501.517 366.779Z" fill="#FFF5F5"/>
<path fill-rule="evenodd" clip-rule="evenodd" d="M206.735 32.4135C214.635 22.9484 225.347 17.6312 236.516 17.6312C247.686 17.6312 258.398 22.9484 266.297 32.4135L278.639 47.1939L290.981 32.4135C294.867 27.5913 299.515 23.745 304.654 21.099C309.793 18.4529 315.32 17.0602 320.913 17.0019C326.507 16.9437 332.053 18.2211 337.23 20.7597C342.407 23.2983 347.11 27.0472 351.065 31.7877C355.02 36.5282 358.148 42.1653 360.266 48.3701C362.384 54.5749 363.449 61.2232 363.401 67.927C363.352 74.6308 362.19 81.2559 359.983 87.4156C357.775 93.5754 354.566 99.1465 350.543 103.804L278.639 190L206.735 103.804C198.839 94.336 194.402 81.4964 194.402 68.1087C194.402 54.721 198.839 41.8814 206.735 32.4135Z" fill="#FFF5F5"/>
<path d="M248.154 283.244C248.345 282.596 248.74 282.027 249.281 281.622C249.822 281.218 250.479 281 251.154 281H276.154C276.649 281 277.137 281.118 277.577 281.344C278.018 281.57 278.398 281.897 278.687 282.298C278.977 282.7 279.166 283.165 279.241 283.654C279.316 284.143 279.273 284.643 279.117 285.112L267.992 318.5H291.779C292.364 318.5 292.938 318.664 293.435 318.973C293.931 319.283 294.331 319.726 294.588 320.251C294.845 320.777 294.95 321.364 294.89 321.946C294.83 322.528 294.607 323.082 294.248 323.544L250.498 379.794C250.05 380.373 249.412 380.776 248.697 380.933C247.982 381.09 247.235 380.991 246.585 380.653C245.935 380.316 245.425 379.76 245.143 379.085C244.861 378.409 244.825 377.656 245.042 376.956L256.298 340.375H235.529C235.043 340.375 234.564 340.262 234.13 340.045C233.695 339.828 233.317 339.512 233.026 339.123C232.735 338.734 232.538 338.283 232.452 337.805C232.366 337.327 232.392 336.835 232.529 336.369L248.154 283.244Z" fill="#FFF5F5"/>
<path d="M97.1523 222H119.652V281H97.1523V222Z" fill="#FFF5F5"/>
<path d="M83.4023 264.775V238.225H133.402V264.775H83.4023Z" fill="#FFF5F5"/>
<path d="M58.2275 419.983C58.2275 424.72 57.4463 428.992 55.8838 432.801C54.3213 436.609 52.0752 439.856 49.1455 442.542C46.2646 445.228 42.7002 447.303 38.4521 448.768C34.2529 450.232 29.2236 450.965 23.3643 450.965H12.5977V485.096C12.5977 485.486 12.4756 485.828 12.2314 486.121C12.0361 486.414 11.6943 486.658 11.2061 486.854C10.7666 487 10.1318 487.122 9.30176 487.22C8.52051 487.366 7.51953 487.439 6.29883 487.439C5.07812 487.439 4.05273 487.366 3.22266 487.22C2.44141 487.122 1.80664 487 1.31836 486.854C0.830078 486.658 0.488281 486.414 0.292969 486.121C0.0976562 485.828 0 485.486 0 485.096V397.645C0 395.691 0.512695 394.3 1.53809 393.47C2.56348 392.64 3.71094 392.225 4.98047 392.225H25.2686C27.3193 392.225 29.2725 392.322 31.1279 392.518C33.0322 392.664 35.2539 393.03 37.793 393.616C40.3809 394.153 42.9932 395.203 45.6299 396.766C48.3154 398.279 50.5859 400.159 52.4414 402.405C54.2969 404.651 55.7129 407.264 56.6895 410.242C57.7148 413.172 58.2275 416.419 58.2275 419.983ZM44.9707 421.009C44.9707 417.151 44.2383 413.929 42.7734 411.341C41.3574 408.753 39.5752 406.824 37.4268 405.555C35.3271 404.285 33.1299 403.479 30.835 403.138C28.5889 402.796 26.3916 402.625 24.2432 402.625H12.5977V440.638H23.9502C27.7588 440.638 30.9082 440.149 33.3984 439.173C35.9375 438.196 38.0615 436.854 39.7705 435.145C41.4795 433.387 42.7734 431.312 43.6523 428.919C44.5312 426.478 44.9707 423.841 44.9707 421.009Z" fill="#00B050"/>
<path d="M145.752 485.096C145.752 485.486 145.654 485.828 145.459 486.121C145.264 486.414 144.922 486.658 144.434 486.854C143.945 487 143.286 487.122 142.456 487.22C141.675 487.366 140.698 487.439 139.526 487.439C138.257 487.439 137.231 487.366 136.45 487.22C135.669 487.122 135.034 487 134.546 486.854C134.058 486.658 133.716 486.414 133.521 486.121C133.325 485.828 133.228 485.486 133.228 485.096V443.055H90.0879V485.096C90.0879 485.486 89.9902 485.828 89.7949 486.121C89.5996 486.414 89.2578 486.658 88.7695 486.854C88.2812 487 87.6221 487.122 86.792 487.22C86.0107 487.366 85.0098 487.439 83.7891 487.439C82.6172 487.439 81.6162 487.366 80.7861 487.22C79.9561 487.122 79.2969 487 78.8086 486.854C78.3203 486.658 77.9785 486.414 77.7832 486.121C77.5879 485.828 77.4902 485.486 77.4902 485.096V394.129C77.4902 393.738 77.5879 393.396 77.7832 393.104C77.9785 392.811 78.3203 392.591 78.8086 392.444C79.2969 392.249 79.9561 392.103 80.7861 392.005C81.6162 391.858 82.6172 391.785 83.7891 391.785C85.0098 391.785 86.0107 391.858 86.792 392.005C87.6221 392.103 88.2812 392.249 88.7695 392.444C89.2578 392.591 89.5996 392.811 89.7949 393.104C89.9902 393.396 90.0879 393.738 90.0879 394.129V432.068H133.228V394.129C133.228 393.738 133.325 393.396 133.521 393.104C133.716 392.811 134.058 392.591 134.546 392.444C135.034 392.249 135.669 392.103 136.45 392.005C137.231 391.858 138.257 391.785 139.526 391.785C140.698 391.785 141.675 391.858 142.456 392.005C143.286 392.103 143.945 392.249 144.434 392.444C144.922 392.591 145.264 392.811 145.459 393.104C145.654 393.396 145.752 393.738 145.752 394.129V485.096Z" fill="#00B050"/>
<path d="M183.545 485.096C183.545 485.486 183.447 485.828 183.252 486.121C183.057 486.414 182.715 486.658 182.227 486.854C181.738 487 181.079 487.122 180.249 487.22C179.468 487.366 178.467 487.439 177.246 487.439C176.074 487.439 175.073 487.366 174.243 487.22C173.413 487.122 172.754 487 172.266 486.854C171.777 486.658 171.436 486.414 171.24 486.121C171.045 485.828 170.947 485.486 170.947 485.096V394.129C170.947 393.738 171.045 393.396 171.24 393.104C171.484 392.811 171.851 392.591 172.339 392.444C172.876 392.249 173.535 392.103 174.316 392.005C175.146 391.858 176.123 391.785 177.246 391.785C178.467 391.785 179.468 391.858 180.249 392.005C181.079 392.103 181.738 392.249 182.227 392.444C182.715 392.591 183.057 392.811 183.252 393.104C183.447 393.396 183.545 393.738 183.545 394.129V485.096Z" fill="#00B050"/>
<path d="M268.14 397.645C268.14 398.572 268.091 399.378 267.993 400.062C267.896 400.745 267.725 401.307 267.48 401.746C267.285 402.137 267.017 402.43 266.675 402.625C266.382 402.82 266.04 402.918 265.649 402.918H238.989V485.096C238.989 485.486 238.892 485.828 238.696 486.121C238.501 486.414 238.159 486.658 237.671 486.854C237.183 487 236.523 487.122 235.693 487.22C234.912 487.366 233.911 487.439 232.69 487.439C231.519 487.439 230.518 487.366 229.688 487.22C228.857 487.122 228.198 487 227.71 486.854C227.222 486.658 226.88 486.414 226.685 486.121C226.489 485.828 226.392 485.486 226.392 485.096V402.918H199.731C199.341 402.918 198.975 402.82 198.633 402.625C198.34 402.43 198.096 402.137 197.9 401.746C197.705 401.307 197.534 400.745 197.388 400.062C197.29 399.378 197.241 398.572 197.241 397.645C197.241 396.717 197.29 395.911 197.388 395.228C197.534 394.495 197.705 393.909 197.9 393.47C198.096 393.03 198.34 392.713 198.633 392.518C198.975 392.322 199.341 392.225 199.731 392.225H265.649C266.04 392.225 266.382 392.322 266.675 392.518C267.017 392.713 267.285 393.03 267.48 393.47C267.725 393.909 267.896 394.495 267.993 395.228C268.091 395.911 268.14 396.717 268.14 397.645Z" fill="#00B050"/>
<path d="M364.966 481.507C364.966 482.483 364.917 483.313 364.819 483.997C364.722 484.632 364.551 485.193 364.307 485.682C364.111 486.121 363.843 486.463 363.501 486.707C363.208 486.902 362.842 487 362.402 487H320.508C319.385 487 318.311 486.634 317.285 485.901C316.309 485.12 315.82 483.777 315.82 481.873V394.129C315.82 393.738 315.918 393.396 316.113 393.104C316.309 392.811 316.65 392.591 317.139 392.444C317.627 392.249 318.286 392.103 319.116 392.005C319.946 391.858 320.947 391.785 322.119 391.785C323.34 391.785 324.341 391.858 325.122 392.005C325.952 392.103 326.611 392.249 327.1 392.444C327.588 392.591 327.93 392.811 328.125 393.104C328.32 393.396 328.418 393.738 328.418 394.129V476.087H362.402C362.842 476.087 363.208 476.209 363.501 476.453C363.843 476.648 364.111 476.966 364.307 477.405C364.551 477.796 364.722 478.333 364.819 479.017C364.917 479.7 364.966 480.53 364.966 481.507Z" fill="#00B050"/>
<path d="M396.899 450.159V485.096C396.899 485.486 396.802 485.828 396.606 486.121C396.411 486.414 396.069 486.658 395.581 486.854C395.093 487 394.434 487.122 393.604 487.22C392.773 487.366 391.772 487.439 390.601 487.439C389.38 487.439 388.354 487.366 387.524 487.22C386.743 487.122 386.084 487 385.547 486.854C385.059 486.658 384.717 486.414 384.521 486.121C384.326 485.828 384.229 485.486 384.229 485.096V450.159L357.422 396.692C356.885 395.569 356.543 394.69 356.396 394.056C356.299 393.421 356.421 392.933 356.763 392.591C357.153 392.249 357.812 392.029 358.74 391.932C359.717 391.834 361.011 391.785 362.622 391.785C364.087 391.785 365.259 391.834 366.138 391.932C367.065 392.029 367.798 392.176 368.335 392.371C368.872 392.518 369.263 392.762 369.507 393.104C369.8 393.396 370.068 393.787 370.312 394.275L383.423 421.521C384.644 424.109 385.864 426.819 387.085 429.651C388.306 432.483 389.551 435.34 390.82 438.221H390.967C392.09 435.438 393.237 432.679 394.409 429.944C395.63 427.161 396.851 424.427 398.071 421.741L411.255 394.349C411.401 393.86 411.597 393.445 411.841 393.104C412.134 392.762 412.5 392.518 412.939 392.371C413.428 392.176 414.087 392.029 414.917 391.932C415.747 391.834 416.797 391.785 418.066 391.785C419.824 391.785 421.191 391.858 422.168 392.005C423.193 392.103 423.901 392.322 424.292 392.664C424.683 393.006 424.805 393.494 424.658 394.129C424.561 394.764 424.243 395.618 423.706 396.692L396.899 450.159Z" fill="#00B050"/>
<path d="M489.551 397.645C489.551 398.572 489.502 399.378 489.404 400.062C489.307 400.745 489.136 401.307 488.892 401.746C488.647 402.137 488.354 402.43 488.013 402.625C487.72 402.82 487.402 402.918 487.061 402.918H452.344V435.145H485.156C485.498 435.145 485.815 435.242 486.108 435.438C486.45 435.584 486.743 435.853 486.987 436.243C487.231 436.634 487.402 437.171 487.5 437.854C487.598 438.489 487.646 439.319 487.646 440.345C487.646 441.272 487.598 442.078 487.5 442.762C487.402 443.396 487.231 443.934 486.987 444.373C486.743 444.764 486.45 445.081 486.108 445.325C485.815 445.521 485.498 445.618 485.156 445.618H452.344V485.096C452.344 485.438 452.246 485.779 452.051 486.121C451.855 486.414 451.514 486.658 451.025 486.854C450.537 487 449.902 487.122 449.121 487.22C448.34 487.366 447.314 487.439 446.045 487.439C444.873 487.439 443.872 487.366 443.042 487.22C442.212 487.122 441.553 487 441.064 486.854C440.576 486.658 440.234 486.414 440.039 486.121C439.844 485.779 439.746 485.438 439.746 485.096V397.352C439.746 395.447 440.234 394.129 441.211 393.396C442.236 392.615 443.311 392.225 444.434 392.225H487.061C487.402 392.225 487.72 392.322 488.013 392.518C488.354 392.713 488.647 393.03 488.892 393.47C489.136 393.909 489.307 394.495 489.404 395.228C489.502 395.911 489.551 396.717 489.551 397.645Z" fill="#00B050"/>
<path d="M561.475 481.8C561.475 482.679 561.426 483.46 561.328 484.144C561.23 484.778 561.06 485.315 560.815 485.755C560.571 486.194 560.278 486.512 559.937 486.707C559.644 486.902 559.302 487 558.911 487H513.428C512.305 487 511.23 486.634 510.205 485.901C509.229 485.12 508.74 483.777 508.74 481.873V397.352C508.74 395.447 509.229 394.129 510.205 393.396C511.23 392.615 512.305 392.225 513.428 392.225H558.398C558.789 392.225 559.131 392.322 559.424 392.518C559.766 392.713 560.034 393.03 560.229 393.47C560.425 393.909 560.571 394.471 560.669 395.154C560.815 395.789 560.889 396.595 560.889 397.571C560.889 398.45 560.815 399.231 560.669 399.915C560.571 400.55 560.425 401.087 560.229 401.526C560.034 401.917 559.766 402.21 559.424 402.405C559.131 402.601 558.789 402.698 558.398 402.698H521.338V432.435H553.125C553.516 432.435 553.857 432.557 554.15 432.801C554.492 432.996 554.761 433.289 554.956 433.68C555.2 434.07 555.371 434.607 555.469 435.291C555.566 435.975 555.615 436.78 555.615 437.708C555.615 438.587 555.566 439.344 555.469 439.979C555.371 440.613 555.2 441.126 554.956 441.517C554.761 441.907 554.492 442.2 554.15 442.396C553.857 442.542 553.516 442.615 553.125 442.615H521.338V476.526H558.911C559.302 476.526 559.644 476.624 559.937 476.819C560.278 477.015 560.571 477.332 560.815 477.771C561.06 478.162 561.23 478.699 561.328 479.383C561.426 480.018 561.475 480.823 561.475 481.8Z" fill="#00B050"/>
</svg>
