<svg width="563" height="488" viewBox="0 0 563 488" fill="none" xmlns="http://www.w3.org/2000/svg">
<path fill-rule="evenodd" clip-rule="evenodd" d="M524.885 381C538.479 348.114 546 311.934 546 273.949C546 122.651 426.684 0 279.5 0C132.316 0 13 122.651 13 273.949C13 311.934 20.5208 348.114 34.1151 381H56.4299C56.0454 380.742 55.7468 380.454 55.534 380.138C55.141 379.553 54.943 378.87 54.9399 378.089L54.2403 203.188C54.2246 199.282 55.2389 196.495 57.283 194.826C59.3271 193.158 61.6187 192.319 64.1578 192.309L104.734 192.146C108.835 192.13 112.742 192.31 116.455 192.685C120.264 192.963 124.711 193.678 129.793 194.829C134.973 195.883 140.206 197.961 145.492 201.065C150.875 204.071 155.431 207.813 159.16 212.29C162.889 216.767 165.742 221.981 167.719 227.93C169.793 233.781 170.845 240.271 170.873 247.4C170.911 256.872 169.383 265.423 166.288 273.053C163.194 280.683 158.728 287.195 152.89 292.589C147.149 297.983 140.037 302.162 131.553 305.126C123.166 308.089 113.114 309.594 101.395 309.641L79.8619 309.727L80.135 377.988C80.1381 378.77 79.8967 379.454 79.4108 380.042C79.1765 380.396 78.8355 380.716 78.3877 381H209.528L209.494 380.987C208.613 380.599 207.977 380.163 207.584 379.676C207.289 379.091 207.14 378.408 207.137 377.627L206.354 181.925C206.351 181.144 206.494 180.46 206.785 179.873C207.173 179.285 207.806 178.794 208.683 178.4C209.658 178.006 210.927 177.708 212.488 177.506C214.05 177.305 216.003 177.199 218.347 177.19C220.788 177.18 222.79 177.27 224.354 177.459C225.917 177.648 227.139 177.936 228.019 178.323C228.9 178.71 229.536 179.196 229.929 179.78C230.322 180.365 230.52 181.047 230.523 181.829L230.839 260.783C237.743 253.431 244.704 247.983 251.721 244.44C258.738 240.798 265.811 238.963 272.94 238.935C281.729 238.9 289.108 240.384 295.077 243.387C301.143 246.293 306.042 250.228 309.773 255.194C313.503 260.159 316.164 266.008 317.753 272.74C319.44 279.374 320.302 287.427 320.34 296.9L320.661 377.173C320.664 377.954 320.472 378.638 320.083 379.226C319.695 379.716 319.062 380.158 318.184 380.552C317.813 380.718 317.381 380.868 316.888 381H369.468C368.551 380.83 367.765 380.615 367.11 380.356C366.229 379.969 365.593 379.532 365.2 379.045C364.905 378.461 364.756 377.778 364.752 376.996L364.225 245.161C364.222 244.478 364.366 243.843 364.657 243.255C365.045 242.668 365.678 242.177 366.555 241.783C367.53 241.388 368.799 241.09 370.36 240.889C371.922 240.687 373.875 240.582 376.219 240.572C378.66 240.563 380.662 240.652 382.226 240.841C383.789 241.03 385.011 241.319 385.891 241.706C386.772 242.093 387.408 242.579 387.801 243.163C388.194 243.747 388.392 244.381 388.395 245.065L388.922 376.9C388.925 377.681 388.733 378.365 388.344 378.953C387.956 379.443 387.323 379.885 386.445 380.279C385.791 380.573 384.946 380.813 383.911 381H463.072C462.106 380.74 461.173 380.45 460.274 380.13C455.383 378.294 451.369 375.576 448.229 371.975C445.089 368.277 442.776 363.647 441.289 358.087C439.899 352.428 439.189 345.79 439.158 338.173L438.85 261.123L420.393 261.197C418.928 261.203 417.753 260.426 416.868 258.867C415.983 257.308 415.533 254.771 415.519 251.255C415.512 249.4 415.603 247.837 415.794 246.567C416.082 245.296 416.419 244.269 416.807 243.486C417.194 242.606 417.68 242.018 418.264 241.723C418.947 241.329 419.678 241.131 420.459 241.128L438.77 241.055L438.644 209.707C438.642 209.024 438.786 208.388 439.076 207.801C439.465 207.214 440.097 206.723 440.975 206.329C441.949 205.837 443.217 205.49 444.779 205.288C446.341 205.087 448.294 204.981 450.637 204.972C453.079 204.962 455.081 205.052 456.644 205.241C458.208 205.43 459.43 205.767 460.31 206.251C461.191 206.639 461.828 207.124 462.221 207.709C462.614 208.293 462.811 208.927 462.814 209.611L462.94 240.958L496.777 240.823C497.558 240.82 498.243 241.012 498.83 241.4C499.417 241.691 499.908 242.275 500.302 243.152C500.794 243.932 501.139 244.956 501.34 246.224C501.54 247.493 501.644 249.055 501.652 250.911C501.666 254.426 501.236 256.967 500.364 258.533C499.491 260.099 498.322 260.885 496.857 260.891L463.02 261.026L463.314 334.561C463.35 343.643 464.696 350.522 467.352 355.199C470.104 359.778 474.947 362.054 481.881 362.026C484.127 362.017 486.128 361.813 487.884 361.416C489.64 360.921 491.201 360.426 492.566 359.932C493.931 359.439 495.101 358.994 496.076 358.6C497.051 358.108 497.929 357.86 498.71 357.857C499.198 357.855 499.638 358 500.03 358.291C500.519 358.484 500.863 358.922 501.061 359.605C501.357 360.288 501.604 361.214 501.804 362.386C502.004 363.557 502.108 365.021 502.115 366.779C502.126 369.611 501.94 371.858 501.556 373.519C501.172 375.181 500.591 376.404 499.813 377.189C499.035 377.973 497.866 378.71 496.306 379.4C494.789 380.071 493.04 380.604 491.059 381H524.885ZM391 200.523C391.023 206.187 389.964 210.048 387.824 212.108C385.683 214.167 381.732 215.208 375.971 215.231C370.307 215.254 366.397 214.293 364.24 212.349C362.181 210.306 361.141 206.502 361.118 200.935C361.096 195.271 362.155 191.41 364.295 189.35C366.435 187.291 370.386 186.25 376.148 186.227C381.812 186.204 385.673 187.214 387.732 189.256C389.888 191.201 390.978 194.956 391 200.523ZM237.114 17.6312C225.944 17.6312 215.232 22.9484 207.333 32.4135C199.436 41.8814 195 54.721 195 68.1087C195 81.4964 199.436 94.336 207.333 103.804L279.237 190L351.14 103.804C355.164 99.1465 358.373 93.5754 360.58 87.4156C362.788 81.2559 363.95 74.6308 363.998 67.927C364.047 61.2232 362.981 54.5749 360.863 48.3701C358.745 42.1653 355.618 36.5282 351.663 31.7877C347.707 27.0472 343.004 23.2983 337.828 20.7597C332.651 18.2211 327.104 16.9437 321.511 17.0019C315.918 17.0602 310.391 18.4529 305.252 21.099C300.112 23.745 295.464 27.5913 291.579 32.4135L279.237 47.1939L266.895 32.4135C258.996 22.9484 248.283 17.6312 237.114 17.6312Z" fill="#00B050"/>
<path d="M228.74 380.949C228.7 380.966 228.659 380.983 228.617 381H248.432C247.999 380.973 247.573 380.856 247.183 380.653C246.533 380.316 246.023 379.76 245.741 379.085C245.458 378.409 245.423 377.656 245.639 376.956L256.896 340.375H236.127C235.641 340.375 235.162 340.262 234.727 340.045C234.293 339.828 233.915 339.512 233.624 339.123C233.332 338.734 233.136 338.283 233.05 337.805C232.963 337.327 232.99 336.835 233.127 336.369L248.752 283.244C248.942 282.596 249.338 282.027 249.878 281.622C250.419 281.218 251.076 281 251.752 281H276.752C277.247 281 277.734 281.118 278.175 281.344C278.615 281.57 278.996 281.897 279.285 282.298C279.574 282.7 279.764 283.165 279.839 283.654C279.913 284.143 279.871 284.643 279.714 285.112L268.589 318.5H292.377C292.962 318.5 293.536 318.664 294.032 318.973C294.529 319.283 294.929 319.726 295.186 320.251C295.443 320.777 295.548 321.364 295.487 321.946C295.427 322.528 295.205 323.082 294.846 323.544L251.096 379.794C250.647 380.373 250.01 380.776 249.295 380.933C249.137 380.968 248.977 380.99 248.817 381H300.05C299.656 380.888 299.304 380.765 298.995 380.629C298.115 380.241 297.478 379.805 297.085 379.318C296.692 378.733 296.494 378.051 296.491 377.269L296.182 300.073C296.152 292.553 295.542 286.501 294.352 281.916C293.162 277.331 291.437 273.383 289.178 270.071C286.918 266.76 283.978 264.233 280.358 262.489C276.836 260.746 272.73 259.883 268.043 259.902C261.988 259.926 255.942 262.099 249.905 266.42C243.867 270.741 237.545 277.065 230.938 285.392L231.306 377.53C231.309 378.311 231.117 378.996 230.729 379.583C230.34 380.073 229.707 380.515 228.829 380.909C228.8 380.923 228.77 380.936 228.74 380.949Z" fill="#00B050"/>
<path fill-rule="evenodd" clip-rule="evenodd" d="M144.368 249.557C144.337 241.842 142.846 235.402 139.896 230.238C137.043 225.074 133.463 221.231 129.156 218.709C124.947 216.187 120.546 214.593 115.954 213.928C111.459 213.262 107.063 212.938 102.766 212.955L79.4752 213.048L79.7793 289.073L102.484 288.982C110.101 288.952 116.396 287.95 121.369 285.977C126.439 284.004 130.676 281.301 134.081 277.869C137.485 274.34 140.056 270.179 141.794 265.387C143.533 260.497 144.391 255.221 144.368 249.557ZM120.25 222H97.75V238.225H84V264.775H97.75V281H120.25V264.775H134V238.225H120.25V222Z" fill="#00B050"/>
<path d="M58.8252 419.983C58.8252 424.72 58.0439 428.992 56.4814 432.801C54.9189 436.609 52.6729 439.856 49.7432 442.542C46.8623 445.228 43.2979 447.303 39.0498 448.768C34.8506 450.232 29.8213 450.965 23.9619 450.965H13.1953V485.096C13.1953 485.486 13.0732 485.828 12.8291 486.121C12.6338 486.414 12.292 486.658 11.8037 486.854C11.3643 487 10.7295 487.122 9.89941 487.22C9.11816 487.366 8.11719 487.439 6.89648 487.439C5.67578 487.439 4.65039 487.366 3.82031 487.22C3.03906 487.122 2.4043 487 1.91602 486.854C1.42773 486.658 1.08594 486.414 0.890625 486.121C0.695312 485.828 0.597656 485.486 0.597656 485.096V397.645C0.597656 395.691 1.11035 394.3 2.13574 393.47C3.16113 392.64 4.30859 392.225 5.57812 392.225H25.8662C27.917 392.225 29.8701 392.322 31.7256 392.518C33.6299 392.664 35.8516 393.03 38.3906 393.616C40.9785 394.153 43.5908 395.203 46.2275 396.766C48.9131 398.279 51.1836 400.159 53.0391 402.405C54.8945 404.651 56.3105 407.264 57.2871 410.242C58.3125 413.172 58.8252 416.419 58.8252 419.983ZM45.5684 421.009C45.5684 417.151 44.8359 413.929 43.3711 411.341C41.9551 408.753 40.1729 406.824 38.0244 405.555C35.9248 404.285 33.7275 403.479 31.4326 403.138C29.1865 402.796 26.9893 402.625 24.8408 402.625H13.1953V440.638H24.5479C28.3564 440.638 31.5059 440.149 33.9961 439.173C36.5352 438.196 38.6592 436.854 40.3682 435.145C42.0771 433.387 43.3711 431.312 44.25 428.919C45.1289 426.478 45.5684 423.841 45.5684 421.009Z" fill="#00B050"/>
<path d="M146.35 485.096C146.35 485.486 146.252 485.828 146.057 486.121C145.861 486.414 145.52 486.658 145.031 486.854C144.543 487 143.884 487.122 143.054 487.22C142.272 487.366 141.296 487.439 140.124 487.439C138.854 487.439 137.829 487.366 137.048 487.22C136.267 487.122 135.632 487 135.144 486.854C134.655 486.658 134.313 486.414 134.118 486.121C133.923 485.828 133.825 485.486 133.825 485.096V443.055H90.6855V485.096C90.6855 485.486 90.5879 485.828 90.3926 486.121C90.1973 486.414 89.8555 486.658 89.3672 486.854C88.8789 487 88.2197 487.122 87.3896 487.22C86.6084 487.366 85.6074 487.439 84.3867 487.439C83.2148 487.439 82.2139 487.366 81.3838 487.22C80.5537 487.122 79.8945 487 79.4062 486.854C78.918 486.658 78.5762 486.414 78.3809 486.121C78.1855 485.828 78.0879 485.486 78.0879 485.096V394.129C78.0879 393.738 78.1855 393.396 78.3809 393.104C78.5762 392.811 78.918 392.591 79.4062 392.444C79.8945 392.249 80.5537 392.103 81.3838 392.005C82.2139 391.858 83.2148 391.785 84.3867 391.785C85.6074 391.785 86.6084 391.858 87.3896 392.005C88.2197 392.103 88.8789 392.249 89.3672 392.444C89.8555 392.591 90.1973 392.811 90.3926 393.104C90.5879 393.396 90.6855 393.738 90.6855 394.129V432.068H133.825V394.129C133.825 393.738 133.923 393.396 134.118 393.104C134.313 392.811 134.655 392.591 135.144 392.444C135.632 392.249 136.267 392.103 137.048 392.005C137.829 391.858 138.854 391.785 140.124 391.785C141.296 391.785 142.272 391.858 143.054 392.005C143.884 392.103 144.543 392.249 145.031 392.444C145.52 392.591 145.861 392.811 146.057 393.104C146.252 393.396 146.35 393.738 146.35 394.129V485.096Z" fill="#00B050"/>
<path d="M184.143 485.096C184.143 485.486 184.045 485.828 183.85 486.121C183.654 486.414 183.312 486.658 182.824 486.854C182.336 487 181.677 487.122 180.847 487.22C180.065 487.366 179.064 487.439 177.844 487.439C176.672 487.439 175.671 487.366 174.841 487.22C174.011 487.122 173.352 487 172.863 486.854C172.375 486.658 172.033 486.414 171.838 486.121C171.643 485.828 171.545 485.486 171.545 485.096V394.129C171.545 393.738 171.643 393.396 171.838 393.104C172.082 392.811 172.448 392.591 172.937 392.444C173.474 392.249 174.133 392.103 174.914 392.005C175.744 391.858 176.721 391.785 177.844 391.785C179.064 391.785 180.065 391.858 180.847 392.005C181.677 392.103 182.336 392.249 182.824 392.444C183.312 392.591 183.654 392.811 183.85 393.104C184.045 393.396 184.143 393.738 184.143 394.129V485.096Z" fill="#00B050"/>
<path d="M268.737 397.645C268.737 398.572 268.688 399.378 268.591 400.062C268.493 400.745 268.322 401.307 268.078 401.746C267.883 402.137 267.614 402.43 267.272 402.625C266.979 402.82 266.638 402.918 266.247 402.918H239.587V485.096C239.587 485.486 239.489 485.828 239.294 486.121C239.099 486.414 238.757 486.658 238.269 486.854C237.78 487 237.121 487.122 236.291 487.22C235.51 487.366 234.509 487.439 233.288 487.439C232.116 487.439 231.115 487.366 230.285 487.22C229.455 487.122 228.796 487 228.308 486.854C227.819 486.658 227.478 486.414 227.282 486.121C227.087 485.828 226.989 485.486 226.989 485.096V402.918H200.329C199.938 402.918 199.572 402.82 199.23 402.625C198.938 402.43 198.693 402.137 198.498 401.746C198.303 401.307 198.132 400.745 197.985 400.062C197.888 399.378 197.839 398.572 197.839 397.645C197.839 396.717 197.888 395.911 197.985 395.228C198.132 394.495 198.303 393.909 198.498 393.47C198.693 393.03 198.938 392.713 199.23 392.518C199.572 392.322 199.938 392.225 200.329 392.225H266.247C266.638 392.225 266.979 392.322 267.272 392.518C267.614 392.713 267.883 393.03 268.078 393.47C268.322 393.909 268.493 394.495 268.591 395.228C268.688 395.911 268.737 396.717 268.737 397.645Z" fill="#00B050"/>
<path d="M365.563 481.507C365.563 482.483 365.515 483.313 365.417 483.997C365.319 484.632 365.148 485.193 364.904 485.682C364.709 486.121 364.44 486.463 364.099 486.707C363.806 486.902 363.439 487 363 487H321.105C319.982 487 318.908 486.634 317.883 485.901C316.906 485.12 316.418 483.777 316.418 481.873V394.129C316.418 393.738 316.516 393.396 316.711 393.104C316.906 392.811 317.248 392.591 317.736 392.444C318.225 392.249 318.884 392.103 319.714 392.005C320.544 391.858 321.545 391.785 322.717 391.785C323.938 391.785 324.938 391.858 325.72 392.005C326.55 392.103 327.209 392.249 327.697 392.444C328.186 392.591 328.527 392.811 328.723 393.104C328.918 393.396 329.016 393.738 329.016 394.129V476.087H363C363.439 476.087 363.806 476.209 364.099 476.453C364.44 476.648 364.709 476.966 364.904 477.405C365.148 477.796 365.319 478.333 365.417 479.017C365.515 479.7 365.563 480.53 365.563 481.507Z" fill="#00B050"/>
<path d="M397.497 450.159V485.096C397.497 485.486 397.399 485.828 397.204 486.121C397.009 486.414 396.667 486.658 396.179 486.854C395.69 487 395.031 487.122 394.201 487.22C393.371 487.366 392.37 487.439 391.198 487.439C389.978 487.439 388.952 487.366 388.122 487.22C387.341 487.122 386.682 487 386.145 486.854C385.656 486.658 385.314 486.414 385.119 486.121C384.924 485.828 384.826 485.486 384.826 485.096V450.159L358.02 396.692C357.482 395.569 357.141 394.69 356.994 394.056C356.896 393.421 357.019 392.933 357.36 392.591C357.751 392.249 358.41 392.029 359.338 391.932C360.314 391.834 361.608 391.785 363.22 391.785C364.685 391.785 365.856 391.834 366.735 391.932C367.663 392.029 368.396 392.176 368.933 392.371C369.47 392.518 369.86 392.762 370.104 393.104C370.397 393.396 370.666 393.787 370.91 394.275L384.021 421.521C385.241 424.109 386.462 426.819 387.683 429.651C388.903 432.483 390.148 435.34 391.418 438.221H391.564C392.688 435.438 393.835 432.679 395.007 429.944C396.228 427.161 397.448 424.427 398.669 421.741L411.853 394.349C411.999 393.86 412.194 393.445 412.438 393.104C412.731 392.762 413.098 392.518 413.537 392.371C414.025 392.176 414.685 392.029 415.515 391.932C416.345 391.834 417.395 391.785 418.664 391.785C420.422 391.785 421.789 391.858 422.766 392.005C423.791 392.103 424.499 392.322 424.89 392.664C425.28 393.006 425.402 393.494 425.256 394.129C425.158 394.764 424.841 395.618 424.304 396.692L397.497 450.159Z" fill="#00B050"/>
<path d="M490.148 397.645C490.148 398.572 490.1 399.378 490.002 400.062C489.904 400.745 489.733 401.307 489.489 401.746C489.245 402.137 488.952 402.43 488.61 402.625C488.317 402.82 488 402.918 487.658 402.918H452.941V435.145H485.754C486.096 435.145 486.413 435.242 486.706 435.438C487.048 435.584 487.341 435.853 487.585 436.243C487.829 436.634 488 437.171 488.098 437.854C488.195 438.489 488.244 439.319 488.244 440.345C488.244 441.272 488.195 442.078 488.098 442.762C488 443.396 487.829 443.934 487.585 444.373C487.341 444.764 487.048 445.081 486.706 445.325C486.413 445.521 486.096 445.618 485.754 445.618H452.941V485.096C452.941 485.438 452.844 485.779 452.648 486.121C452.453 486.414 452.111 486.658 451.623 486.854C451.135 487 450.5 487.122 449.719 487.22C448.938 487.366 447.912 487.439 446.643 487.439C445.471 487.439 444.47 487.366 443.64 487.22C442.81 487.122 442.15 487 441.662 486.854C441.174 486.658 440.832 486.414 440.637 486.121C440.441 485.779 440.344 485.438 440.344 485.096V397.352C440.344 395.447 440.832 394.129 441.809 393.396C442.834 392.615 443.908 392.225 445.031 392.225H487.658C488 392.225 488.317 392.322 488.61 392.518C488.952 392.713 489.245 393.03 489.489 393.47C489.733 393.909 489.904 394.495 490.002 395.228C490.1 395.911 490.148 396.717 490.148 397.645Z" fill="#00B050"/>
<path d="M562.072 481.8C562.072 482.679 562.023 483.46 561.926 484.144C561.828 484.778 561.657 485.315 561.413 485.755C561.169 486.194 560.876 486.512 560.534 486.707C560.241 486.902 559.899 487 559.509 487H514.025C512.902 487 511.828 486.634 510.803 485.901C509.826 485.12 509.338 483.777 509.338 481.873V397.352C509.338 395.447 509.826 394.129 510.803 393.396C511.828 392.615 512.902 392.225 514.025 392.225H558.996C559.387 392.225 559.729 392.322 560.021 392.518C560.363 392.713 560.632 393.03 560.827 393.47C561.022 393.909 561.169 394.471 561.267 395.154C561.413 395.789 561.486 396.595 561.486 397.571C561.486 398.45 561.413 399.231 561.267 399.915C561.169 400.55 561.022 401.087 560.827 401.526C560.632 401.917 560.363 402.21 560.021 402.405C559.729 402.601 559.387 402.698 558.996 402.698H521.936V432.435H553.723C554.113 432.435 554.455 432.557 554.748 432.801C555.09 432.996 555.358 433.289 555.554 433.68C555.798 434.07 555.969 434.607 556.066 435.291C556.164 435.975 556.213 436.78 556.213 437.708C556.213 438.587 556.164 439.344 556.066 439.979C555.969 440.613 555.798 441.126 555.554 441.517C555.358 441.907 555.09 442.2 554.748 442.396C554.455 442.542 554.113 442.615 553.723 442.615H521.936V476.526H559.509C559.899 476.526 560.241 476.624 560.534 476.819C560.876 477.015 561.169 477.332 561.413 477.771C561.657 478.162 561.828 478.699 561.926 479.383C562.023 480.018 562.072 480.823 562.072 481.8Z" fill="#00B050"/>
</svg>
